<svg xmlns="http://www.w3.org/2000/svg" viewBox="4877 3061 20 20">
  <defs>
    <style>
      .cls-1 {
        fill: #fff;
      }

      .cls-2, .cls-3 {
        stroke: none;
      }

      .cls-3 {
        fill: #4f6080;
      }
    </style>
  </defs>
  <g id="check_off" class="cls-1" transform="translate(4877 3061)">
    <path class="cls-2" d="M 17.77778053283691 19.5 L 2.222219944000244 19.5 C 1.272580027580261 19.5 0.5 18.72742080688477 0.5 17.77778053283691 L 0.5 2.222219944000244 C 0.5 1.272580027580261 1.272580027580261 0.5 2.222219944000244 0.5 L 17.77778053283691 0.5 C 18.72742080688477 0.5 19.5 1.272580027580261 19.5 2.222219944000244 L 19.5 17.77778053283691 C 19.5 18.72742080688477 18.72742080688477 19.5 17.77778053283691 19.5 Z"/>
    <path class="cls-3" d="M 17.77778053283691 19 C 18.45170974731445 19 19 18.45170974731445 19 17.77778053283691 L 19 2.222219944000244 C 19 1.548290014266968 18.45170974731445 1 17.77778053283691 1 L 2.222219944000244 1 C 1.548290014266968 1 1 1.548290014266968 1 2.222219944000244 L 1 17.77778053283691 C 1 18.45170974731445 1.548290014266968 19 2.222219944000244 19 L 17.77778053283691 19 M 17.77778053283691 20 L 2.222219944000244 20 C 0.994920015335083 20 0 19.00507926940918 0 17.77778053283691 L 0 2.222219944000244 C 0 0.994920015335083 0.994920015335083 0 2.222219944000244 0 L 17.77778053283691 0 C 19.00507926940918 0 20 0.994920015335083 20 2.222219944000244 L 20 17.77778053283691 C 20 19.00507926940918 19.00507926940918 20 17.77778053283691 20 Z"/>
  </g>
</svg>
