<svg xmlns="http://www.w3.org/2000/svg" width="13.365" height="13.365" viewBox="0 0 13.365 13.365">
  <path id="history" d="M21.366,14.67a6.683,6.683,0,0,1-10.877,5.216.646.646,0,0,1-.05-.959l.3-.3a.648.648,0,0,1,.859-.053,4.959,4.959,0,1,0-.316-7.5l1.368,1.368a.431.431,0,0,1-.3.736H8.431A.431.431,0,0,1,8,12.743V8.825a.431.431,0,0,1,.736-.3l1.33,1.33a6.683,6.683,0,0,1,11.3,4.819Zm-4.875,2.123.265-.34a.647.647,0,0,0-.113-.908l-1.1-.853V11.88a.647.647,0,0,0-.647-.647h-.431a.647.647,0,0,0-.647.647v3.655l1.763,1.371A.647.647,0,0,0,16.491,16.793Z" transform="translate(-8 -8)" fill="#fff"/>
</svg>
