<svg xmlns="http://www.w3.org/2000/svg" xmlns:xlink="http://www.w3.org/1999/xlink" viewBox="0 0 19.771 16.524">
  <defs>
    <style>
      .cls-1 {
        fill: none;
      }

      .cls-2 {
        clip-path: url(#clip-path);
      }

      .cls-3 {
        fill: #354056;
      }
    </style>
    <clipPath id="clip-path">
      <rect class="cls-1" width="19.771" height="16.524"/>
    </clipPath>
  </defs>
  <g id="Repeat_Grid_1" data-name="Repeat Grid 1" class="cls-2" transform="translate(0 0)">
    <g transform="translate(-23 -27.695)">
      <g id="ic_arrow_back02" transform="translate(42.771 44.218) rotate(180)">
        <g id="Group_339" data-name="Group 339" transform="translate(0 -0.002)">
          <path id="Union_13" data-name="Union 13" class="cls-3" d="M10.691,16.185a1.157,1.157,0,0,1,0-1.636L15.7,9.542H1.261a1.26,1.26,0,1,1,0-2.521H15.737L10.691,1.976A1.157,1.157,0,0,1,12.327.339l7.106,7.1a1.158,1.158,0,0,1,0,1.636l-7.106,7.1a1.155,1.155,0,0,1-1.636,0Z" transform="translate(0 0)"/>
        </g>
      </g>
    </g>
  </g>
</svg>
