<svg xmlns="http://www.w3.org/2000/svg" xmlns:xlink="http://www.w3.org/1999/xlink" viewBox="0 0 42 42">
  <defs>
    <style>
      .cls-1 {
        fill: #fff;
      }

      .cls-1, .cls-2 {
        opacity: 0.95;
      }

      .cls-2 {
        fill: rgba(102,109,123,0.89);
      }

      .cls-3 {
        filter: url(#Ellipse_667);
      }
    </style>
    <filter id="Ellipse_667" x="0" y="0" width="42" height="42" filterUnits="userSpaceOnUse">
      <feOffset dy="3" input="SourceAlpha"/>
      <feGaussianBlur stdDeviation="3" result="blur"/>
      <feFlood flood-color="#666d7b" flood-opacity="0.204"/>
      <feComposite operator="in" in2="blur"/>
      <feComposite in="SourceGraphic"/>
    </filter>
  </defs>
  <g id="ic_close_03" transform="translate(-924 -1067)">
    <g class="cls-3" transform="matrix(1, 0, 0, 1, 924, 1067)">
      <circle id="Ellipse_667-2" data-name="Ellipse 667" class="cls-1" cx="12" cy="12" r="12" transform="translate(9 6)"/>
    </g>
    <path id="Path_45982" data-name="Path 45982" class="cls-2" d="M9.549,1.948,6.554,4.943,9.549,7.938A1.14,1.14,0,1,1,7.936,9.551l-3-2.995L1.946,9.551A1.14,1.14,0,0,1,.334,7.938L3.328,4.943.334,1.948A1.14,1.14,0,0,1,1.946.336l3,2.995L7.936.336A1.14,1.14,0,0,1,9.549,1.948Z" transform="translate(940 1079.998)"/>
  </g>
</svg>
