<svg xmlns="http://www.w3.org/2000/svg" viewBox="0 0 20.896 21.529">
  <defs>
    <style>
      .cls-1 {
        fill: #354056;
      }
    </style>
  </defs>
  <path id="ic_close_3" class="cls-1" d="M.441,21.087a1.508,1.508,0,0,1,0-2.132l8.183-8.182s0-.005,0-.008,0-.006,0-.009L.442,2.574A1.508,1.508,0,1,1,2.574.441l7.875,7.874L18.323.442a1.508,1.508,0,0,1,2.132,2.132l-8.183,8.183s0,.005,0,.008,0,.006,0,.009l8.183,8.182a1.508,1.508,0,1,1-2.132,2.132l-7.875-7.874L2.573,21.087a1.507,1.507,0,0,1-2.132,0Z" transform="translate(0 0)"/>
</svg>
