<svg xmlns="http://www.w3.org/2000/svg" viewBox="0 0 14.121 14.121">
  <defs>
    <style>
      .cls-1 {
        fill: #db4955;
      }
    </style>
  </defs>
  <path id="exclamation-circle" class="cls-1" d="M22.121,15.06A7.06,7.06,0,1,1,15.06,8,7.06,7.06,0,0,1,22.121,15.06Zm-7.06,1.423a1.31,1.31,0,1,0,1.31,1.31A1.31,1.31,0,0,0,15.06,16.484Zm-1.243-4.707.211,3.872a.342.342,0,0,0,.341.323h1.382a.342.342,0,0,0,.341-.323l.211-3.872a.342.342,0,0,0-.341-.36h-1.8A.342.342,0,0,0,13.817,11.777Z" transform="translate(-8 -8)"/>
</svg>
